# Blender v2.65 (sub 0) OBJ File: 'SA_45ACP_Example.blend'
# www.blender.org
mtllib SA_45ACP_Example.mtl
o 45_ACP_Low_Poly
v 0.000000 -0.330142 -0.150000
v -0.057403 -0.330142 -0.138582
v -0.106066 -0.330142 -0.106066
v -0.138582 -0.330142 -0.057403
v -0.150000 -0.330142 0.000000
v -0.138582 -0.330142 0.057403
v -0.106066 -0.330142 0.106066
v -0.057403 -0.330142 0.138582
v -0.000000 -0.330142 0.150000
v 0.057402 -0.330142 0.138582
v 0.106066 -0.330142 0.106066
v 0.138582 -0.330142 0.057403
v 0.150000 -0.330142 -0.000000
v 0.138582 -0.330142 -0.057403
v 0.106066 -0.330142 -0.106066
v 0.057402 -0.330142 -0.138582
v 0.000000 -0.297872 -0.150000
v -0.057403 -0.297872 -0.138582
v -0.106066 -0.297872 -0.106066
v -0.138582 -0.297872 -0.057403
v -0.150000 -0.297872 0.000000
v -0.138582 -0.297872 0.057403
v -0.106066 -0.297872 0.106066
v -0.057403 -0.297872 0.138582
v -0.000000 -0.297872 0.150000
v 0.057402 -0.297872 0.138582
v 0.106066 -0.297872 0.106066
v 0.138582 -0.297872 0.057403
v 0.150000 -0.297872 -0.000000
v 0.138582 -0.297872 -0.057403
v 0.106066 -0.297872 -0.106066
v 0.057402 -0.297872 -0.138582
v 0.000000 -0.219674 -0.154657
v -0.059185 -0.219674 -0.142885
v -0.109359 -0.219674 -0.109359
v -0.142885 -0.219674 -0.059185
v -0.154657 -0.219674 0.000000
v -0.142885 -0.219674 0.059185
v -0.109359 -0.219674 0.109359
v -0.059185 -0.219674 0.142885
v -0.000000 -0.219674 0.154657
v 0.059185 -0.219674 0.142885
v 0.109359 -0.219674 0.109359
v 0.142885 -0.219674 0.059185
v 0.154657 -0.219674 -0.000000
v 0.142885 -0.219674 -0.059185
v 0.109359 -0.219674 -0.109359
v 0.059185 -0.219674 -0.142885
v 0.000000 0.261391 -0.154657
v -0.059185 0.261391 -0.142885
v -0.109359 0.261391 -0.109359
v -0.142885 0.261391 -0.059185
v -0.154657 0.261391 0.000000
v -0.142885 0.261391 0.059185
v -0.109359 0.261391 0.109359
v -0.059185 0.261391 0.142885
v -0.000000 0.261391 0.154657
v 0.059185 0.261391 0.142885
v 0.109359 0.261391 0.109359
v 0.142885 0.261391 0.059185
v 0.154657 0.261391 -0.000000
v 0.142885 0.261391 -0.059185
v 0.109359 0.261391 -0.109359
v 0.059185 0.261391 -0.142885
v -0.000000 -0.345783 -0.139651
v -0.069826 -0.345783 -0.120941
v -0.120941 -0.345783 -0.069826
v -0.139651 -0.345783 -0.000000
v -0.120941 -0.345783 0.069826
v -0.069826 -0.345783 0.120941
v -0.000000 -0.345783 0.139651
v 0.069826 -0.345783 0.120941
v 0.120941 -0.345783 0.069826
v 0.139651 -0.345783 0.000000
v 0.120941 -0.345783 -0.069826
v 0.069826 -0.345783 -0.120941
v -0.000000 -0.295049 -0.129373
v -0.064687 -0.295049 -0.112040
v -0.112040 -0.295049 -0.064687
v -0.129373 -0.295049 -0.000000
v -0.112040 -0.295049 0.064687
v -0.064687 -0.295049 0.112040
v -0.000000 -0.295049 0.129373
v 0.064687 -0.295049 0.112040
v 0.112040 -0.295049 0.064687
v 0.129373 -0.295049 0.000000
v 0.112041 -0.295049 -0.064687
v 0.064687 -0.295049 -0.112040
v -0.000000 -0.261776 -0.129373
v -0.064687 -0.261776 -0.112040
v -0.112040 -0.261776 -0.064687
v -0.129373 -0.261776 -0.000000
v -0.112040 -0.261776 0.064687
v -0.064687 -0.261776 0.112040
v -0.000000 -0.261776 0.129373
v 0.064687 -0.261776 0.112040
v 0.112040 -0.261776 0.064687
v 0.129373 -0.261776 0.000000
v 0.112041 -0.261776 -0.064687
v 0.064687 -0.261776 -0.112040
v 0.000000 0.265654 -0.146440
v -0.056040 0.265654 -0.135293
v -0.103549 0.265654 -0.103549
v -0.135293 0.265654 -0.056040
v -0.146440 0.265654 0.000000
v -0.135293 0.265654 0.056040
v -0.103549 0.265654 0.103548
v -0.056040 0.265654 0.135293
v -0.000000 0.265654 0.146440
v 0.056040 0.265654 0.135293
v 0.103548 0.265654 0.103549
v 0.135293 0.265654 0.056040
v 0.146440 0.265654 -0.000000
v 0.135293 0.265654 -0.056040
v 0.103548 0.265654 -0.103549
v 0.056040 0.265654 -0.135293
v 0.000000 0.475046 -0.107147
v -0.041003 0.475046 -0.098991
v -0.075764 0.475046 -0.075764
v -0.098991 0.475046 -0.041003
v -0.107147 0.475046 -0.000000
v -0.098991 0.475046 0.041003
v -0.075764 0.475046 0.075764
v -0.041003 0.475046 0.098991
v -0.000000 0.475046 0.107147
v 0.041003 0.475046 0.098991
v 0.075764 0.475046 0.075764
v 0.098991 0.475046 0.041003
v 0.107147 0.475046 -0.000000
v 0.098991 0.475046 -0.041003
v 0.075764 0.475046 -0.075764
v 0.041003 0.475046 -0.098991
v -0.000000 0.475046 -0.068969
v -0.034485 0.475046 -0.059729
v -0.059729 0.475046 -0.034485
v -0.068969 0.475046 0.000000
v -0.059729 0.475046 0.034485
v -0.034485 0.475046 0.059729
v -0.000000 0.475046 0.068969
v 0.034485 0.475046 0.059729
v 0.059729 0.475046 0.034485
v 0.068969 0.475046 0.000000
v 0.059729 0.475046 -0.034484
v 0.034485 0.475046 -0.059729
v -0.000000 0.443347 -0.029023
v -0.025135 0.443347 -0.014512
v -0.025135 0.443347 0.014512
v 0.000000 0.443347 0.029023
v 0.025135 0.443347 0.014512
v 0.025135 0.443347 -0.014512
vt 0.537600 0.040773
vt 0.574861 0.040773
vt 0.574861 0.088045
vt 0.537600 0.088045
vt 0.313632 0.040773
vt 0.351157 0.040773
vt 0.351157 0.088045
vt 0.313632 0.088045
vt 0.202324 0.040773
vt 0.240215 0.040773
vt 0.240215 0.088045
vt 0.202324 0.088045
vt 0.612664 0.040773
vt 0.612664 0.088045
vt 0.388889 0.040773
vt 0.388889 0.088045
vt 0.276483 0.040773
vt 0.276483 0.088045
vt 0.014743 0.040773
vt 0.052163 0.040773
vt 0.052163 0.088045
vt 0.014743 0.088045
vt 0.426988 0.040773
vt 0.426988 0.088045
vt 0.089969 0.040773
vt 0.089969 0.088045
vt 0.462934 0.040773
vt 0.462934 0.088045
vt 0.127020 0.040773
vt 0.127020 0.088045
vt 0.500298 0.040773
vt 0.500298 0.088045
vt 0.164130 0.040773
vt 0.164130 0.088045
vt 0.240215 0.227177
vt 0.276483 0.227177
vt 0.276483 0.777338
vt 0.240215 0.777338
vt 0.014743 0.227177
vt 0.052163 0.227177
vt 0.052163 0.777338
vt 0.014743 0.777338
vt 0.388889 0.227177
vt 0.425822 0.227177
vt 0.425822 0.777338
vt 0.388889 0.777338
vt 0.313632 0.227177
vt 0.313632 0.777338
vt 0.089969 0.227177
vt 0.089969 0.777338
vt 0.462934 0.227177
vt 0.462934 0.777338
vt 0.127020 0.227177
vt 0.127020 0.777338
vt 0.500997 0.227177
vt 0.500997 0.777338
vt 0.164130 0.227177
vt 0.164130 0.777338
vt 0.538766 0.227177
vt 0.538766 0.777338
vt 0.202324 0.227177
vt 0.202324 0.777338
vt 0.574744 0.227177
vt 0.574744 0.777338
vt 0.351157 0.227177
vt 0.351157 0.777338
vt 0.612664 0.227177
vt 0.612664 0.777338
vt 0.164130 0.118132
vt 0.220390 0.118132
vt 0.220390 0.162570
vt 0.164130 0.162570
vt 0.462933 0.118132
vt 0.518949 0.118132
vt 0.518949 0.162570
vt 0.462933 0.162570
vt 0.258490 0.118132
vt 0.258490 0.162570
vt 0.556699 0.118132
vt 0.556699 0.162570
vt 0.313632 0.118132
vt 0.313632 0.162570
vt 0.612664 0.118132
vt 0.612664 0.162570
vt 0.014743 0.118132
vt 0.070714 0.118132
vt 0.070714 0.162570
vt 0.014743 0.162570
vt 0.369671 0.118132
vt 0.369671 0.162570
vt 0.108604 0.118132
vt 0.108604 0.162570
vt 0.406794 0.118132
vt 0.406794 0.162570
vt 0.313632 0.014743
vt 0.362577 0.014743
vt 0.263416 0.014743
vt 0.462934 0.014743
vt 0.414005 0.014743
vt 0.514221 0.014743
vt 0.612664 0.014743
vt 0.561893 0.014743
vt 0.065422 0.014743
vt 0.014743 0.014743
vt 0.164130 0.014743
vt 0.114046 0.014743
vt 0.216060 0.014743
vt 0.962835 0.272142
vt 0.814226 0.272142
vt 0.802731 0.186342
vt 0.974330 0.186342
vt 0.931431 0.334951
vt 0.845631 0.334951
vt 0.888531 0.357941
vt 0.814226 0.100543
vt 0.962835 0.100543
vt 0.845631 0.037733
vt 0.931430 0.037733
vt 0.888531 0.014743
vt 0.574744 0.788435
vt 0.538766 0.788435
vt 0.351157 0.788435
vt 0.313632 0.788435
vt 0.240215 0.788435
vt 0.202324 0.788435
vt 0.612664 0.788435
vt 0.388889 0.788435
vt 0.276483 0.788435
vt 0.052163 0.788435
vt 0.014743 0.788435
vt 0.425822 0.788435
vt 0.089969 0.788435
vt 0.462933 0.788435
vt 0.127020 0.788435
vt 0.500998 0.788435
vt 0.164130 0.788435
vt 0.642150 0.924506
vt 0.642150 0.863142
vt 0.773245 0.863142
vt 0.773245 0.924506
vt 0.642150 0.318010
vt 0.642150 0.257774
vt 0.773245 0.257774
vt 0.773245 0.318010
vt 0.642150 0.803003
vt 0.773245 0.803003
vt 0.642150 0.195991
vt 0.773245 0.195991
vt 0.642150 0.742769
vt 0.773245 0.742769
vt 0.642150 0.134689
vt 0.773245 0.134689
vt 0.642150 0.680776
vt 0.773245 0.680776
vt 0.642150 0.076291
vt 0.773245 0.076291
vt 0.642150 0.500526
vt 0.642150 0.439201
vt 0.773245 0.439201
vt 0.773245 0.500526
vt 0.642150 0.619274
vt 0.773245 0.619274
vt 0.642150 0.014743
vt 0.773245 0.014743
vt 0.642150 0.377957
vt 0.773245 0.377957
vt 0.642150 0.560406
vt 0.773245 0.560406
vt 0.642150 0.985257
vt 0.773245 0.985257
vt 0.935234 0.613113
vt 0.909997 0.604732
vt 0.915936 0.560400
vt 0.940477 0.560400
vt 0.909997 0.516068
vt 0.935234 0.507687
vt 0.807974 0.507687
vt 0.833211 0.516068
vt 0.827272 0.560400
vt 0.802731 0.560400
vt 0.833211 0.604733
vt 0.807974 0.613113
vt 0.845247 0.687660
vt 0.849438 0.637186
vt 0.871604 0.649065
vt 0.871604 0.698146
vt 0.893770 0.637186
vt 0.897960 0.687660
vt 0.920304 0.657801
vt 0.822904 0.657801
vt 0.822904 0.462999
vt 0.849438 0.483614
vt 0.845247 0.433140
vt 0.871604 0.422655
vt 0.871604 0.471735
vt 0.897960 0.433140
vt 0.893770 0.483614
vt 0.920304 0.462999
vt 0.890260 0.560400
vt 0.880932 0.528087
vt 0.880932 0.592713
vt 0.862276 0.592713
vt 0.852948 0.560400
vt 0.862276 0.528087
vn -0.669301 -0.322459 0.669301
vn -0.340922 -0.294046 0.892880
vn -0.295877 0.620746 0.726005
vn -0.552965 0.623218 0.552965
vn 0.000000 -0.319834 -0.947447
vn -0.340922 -0.294046 -0.892880
vn -0.295877 0.620746 -0.726005
vn 0.000000 0.623859 -0.781518
vn 0.892880 -0.294046 -0.340922
vn 0.669301 -0.322459 -0.669301
vn 0.552965 0.623218 -0.552965
vn 0.726005 0.620746 -0.295877
vn 0.000000 -0.319834 0.947447
vn 0.000000 0.623859 0.781518
vn -0.669301 -0.322459 -0.669301
vn -0.552965 0.623218 -0.552965
vn 0.340922 -0.294046 -0.892880
vn 0.295877 0.620746 -0.726005
vn 0.340922 -0.294046 0.892880
vn 0.295877 0.620746 0.726005
vn -0.892880 -0.294046 -0.340922
vn -0.726005 0.620746 -0.295877
vn 0.669301 -0.322459 0.669301
vn 0.552965 0.623218 0.552965
vn -0.947447 -0.319834 0.000000
vn -0.781518 0.623859 0.000000
vn 0.892880 -0.294046 0.340922
vn 0.726005 0.620746 0.295877
vn -0.892880 -0.294046 0.340922
vn -0.726005 0.620746 0.295877
vn 0.947447 -0.319834 0.000000
vn 0.781518 0.623859 0.000000
vn 0.682516 -0.261422 -0.682516
vn 0.361919 -0.260262 -0.895108
vn 0.333018 0.492599 -0.803980
vn 0.615345 0.492599 -0.615345
vn 0.000000 -0.275246 0.961364
vn 0.361919 -0.260262 0.895108
vn 0.333018 0.492599 0.803980
vn 0.000000 0.492599 0.870235
vn -0.682516 -0.261422 -0.682516
vn -0.895108 -0.260262 -0.361919
vn -0.803980 0.492599 -0.333018
vn -0.615345 0.492599 -0.615345
vn 0.000000 -0.275246 -0.961364
vn 0.000000 0.492599 -0.870235
vn 0.682516 -0.261422 0.682516
vn 0.615345 0.492599 0.615345
vn -0.961364 -0.275246 0.000000
vn -0.870235 0.492599 0.000000
vn 0.895108 -0.260262 0.361919
vn 0.803980 0.492599 0.333018
vn -0.895108 -0.260262 0.361919
vn -0.803980 0.492599 0.333018
vn 0.961364 -0.275246 0.000000
vn 0.870235 0.492599 0.000000
vn -0.682516 -0.261422 0.682516
vn -0.615345 0.492599 0.615345
vn 0.895108 -0.260262 -0.361919
vn 0.803980 0.492599 -0.333018
vn -0.361919 -0.260262 0.895108
vn -0.333018 0.492599 0.803980
vn -0.361919 -0.260262 -0.895108
vn -0.333018 0.492599 -0.803980
vn 0.692526 0.721366 0.000000
vn 0.604633 0.715812 -0.349223
vn 0.831538 -0.293832 -0.471328
vn 0.954405 -0.298410 0.000000
vn -0.692526 0.721366 0.000000
vn -0.604633 0.715812 0.349223
vn -0.831538 -0.293832 0.471328
vn -0.954405 -0.298410 0.000000
vn 0.349223 0.715812 -0.604633
vn 0.471328 -0.293832 -0.831538
vn -0.349223 0.715812 0.604633
vn -0.471328 -0.293832 0.831538
vn 0.000000 0.721366 -0.692526
vn 0.000000 -0.298410 -0.954405
vn 0.000000 0.721366 0.692526
vn 0.000000 -0.298410 0.954405
vn 0.349223 0.715812 0.604633
vn 0.471328 -0.293832 0.831538
vn -0.349223 0.715812 -0.604633
vn -0.471328 -0.293832 -0.831538
vn 0.604633 0.715812 0.349223
vn 0.831538 -0.293832 0.471328
vn -0.604633 0.715812 -0.349223
vn -0.831538 -0.293832 -0.471328
vn 0.000000 -0.873623 -0.486557
vn -0.272164 -0.841884 -0.465987
vn 0.272164 -0.841884 -0.465987
vn -0.486557 -0.873623 0.000000
vn -0.465987 -0.841884 -0.272164
vn -0.465987 -0.841884 0.272164
vn 0.000000 -0.873623 0.486557
vn -0.272164 -0.841884 0.465987
vn 0.272164 -0.841884 0.465987
vn 0.486557 -0.873623 0.000000
vn 0.465987 -0.841884 0.272164
vn 0.465987 -0.841884 -0.272164
vn -0.299081 0.623798 0.722068
vn -0.552660 0.623798 0.552660
vn -0.299081 0.623798 -0.722068
vn 0.000000 0.623798 -0.781579
vn 0.552660 0.623798 -0.552660
vn 0.722068 0.623798 -0.299081
vn 0.000000 0.623798 0.781579
vn -0.552660 0.623798 -0.552660
vn 0.299081 0.623798 -0.722068
vn 0.299081 0.623798 0.722068
vn -0.722068 0.623798 -0.299081
vn 0.552660 0.623798 0.552660
vn -0.781579 0.623798 0.000000
vn 0.722068 0.623798 0.299081
vn -0.722068 0.623798 0.299081
vn 0.781579 0.623798 0.000000
vn 0.481735 0.731986 0.481735
vn 0.260689 0.731986 0.629414
vn -0.681265 0.731986 0.000000
vn -0.629414 0.731986 -0.260689
vn 0.629414 0.731986 0.260689
vn -0.629414 0.731986 0.260689
vn 0.681265 0.731986 0.000000
vn -0.481735 0.731986 0.481735
vn 0.629414 0.731986 -0.260689
vn -0.260689 0.731986 0.629414
vn -0.260689 0.731986 -0.629414
vn 0.000000 0.731986 -0.681265
vn 0.481735 0.731986 -0.481735
vn 0.000000 0.731986 0.681265
vn -0.481735 0.731986 -0.481735
vn 0.260689 0.731986 -0.629414
vn 0.142430 0.961791 0.233772
vn 0.000000 0.966613 0.256203
vn -0.142430 0.961791 0.233772
vn -0.142430 0.961791 -0.233772
vn 0.000000 0.966613 -0.256203
vn 0.142430 0.961791 -0.233772
vn 0.241279 0.960387 -0.139286
vn 0.275094 0.961394 0.000000
vn 0.241279 0.960387 0.139286
vn -0.241279 0.960387 -0.139286
vn -0.275094 0.961394 0.000000
vn -0.241279 0.960387 0.139286
vn 0.000000 0.919553 0.392926
vn -0.314768 0.926908 0.204260
vn 0.314768 0.926908 0.204260
vn 0.314768 0.926908 -0.204260
vn 0.000000 0.919553 -0.392926
vn -0.314768 0.926908 -0.204260
usemtl 45ACP_Mats
s 1
f 7/1/1 8/2/2 24/3/3 23/4/4
f 1/5/5 2/6/6 18/7/7 17/8/8
f 14/9/9 15/10/10 31/11/11 30/12/12
f 8/2/2 9/13/13 25/14/14 24/3/3
f 2/6/6 3/15/15 19/16/16 18/7/7
f 15/10/10 16/17/17 32/18/18 31/11/11
f 9/19/13 10/20/19 26/21/20 25/22/14
f 3/15/15 4/23/21 20/24/22 19/16/16
f 16/17/17 1/5/5 17/8/8 32/18/18
f 10/20/19 11/25/23 27/26/24 26/21/20
f 4/23/21 5/27/25 21/28/26 20/24/22
f 11/25/23 12/29/27 28/30/28 27/26/24
f 5/27/25 6/31/29 22/32/30 21/28/26
f 12/29/27 13/33/31 29/34/32 28/30/28
f 6/31/29 7/1/1 23/4/4 22/32/30
f 13/33/31 14/9/9 30/12/12 29/34/32
f 47/35/33 48/36/34 64/37/35 63/38/36
f 41/39/37 42/40/38 58/41/39 57/42/40
f 35/43/41 36/44/42 52/45/43 51/46/44
f 48/36/34 33/47/45 49/48/46 64/37/35
f 42/40/38 43/49/47 59/50/48 58/41/39
f 36/44/42 37/51/49 53/52/50 52/45/43
f 43/49/47 44/53/51 60/54/52 59/50/48
f 37/51/49 38/55/53 54/56/54 53/52/50
f 44/53/51 45/57/55 61/58/56 60/54/52
f 38/55/53 39/59/57 55/60/58 54/56/54
f 45/57/55 46/61/59 62/62/60 61/58/56
f 39/59/57 40/63/61 56/64/62 55/60/58
f 33/47/45 34/65/63 50/66/64 49/48/46
f 46/61/59 47/35/33 63/38/36 62/62/60
f 40/63/61 41/67/37 57/68/40 56/64/62
f 34/65/63 35/43/41 51/46/44 50/66/64
f 86/69/65 87/70/66 99/71/67 98/72/68
f 80/73/69 81/74/70 93/75/71 92/76/72
f 87/70/66 88/77/73 100/78/74 99/71/67
f 81/74/70 82/79/75 94/80/76 93/75/71
f 88/77/73 77/81/77 89/82/78 100/78/74
f 82/79/75 83/83/79 95/84/80 94/80/76
f 83/85/79 84/86/81 96/87/82 95/88/80
f 77/81/77 78/89/83 90/90/84 89/82/78
f 84/86/81 85/91/85 97/92/86 96/87/82
f 78/89/83 79/93/87 91/94/88 90/90/84
f 85/91/85 86/69/65 98/72/68 97/92/86
f 79/93/87 80/73/69 92/76/72 91/94/88
f 26/21/20 84/86/81 83/85/79 25/22/14
f 25/14/14 83/83/79 82/79/75 24/3/3
f 22/32/30 81/74/70 80/73/69 21/28/26
f 21/28/26 80/73/69 79/93/87 20/24/22
f 18/7/7 78/89/83 77/81/77 17/8/8
f 17/8/8 77/81/77 88/77/73 32/18/18
f 30/12/12 87/70/66 86/69/65 29/34/32
f 29/34/32 86/69/65 85/91/85 28/30/28
f 31/11/11 88/77/73 87/70/66
f 30/12/12 31/11/11 87/70/66
f 32/18/18 88/77/73 31/11/11
f 27/26/24 85/91/85 84/86/81
f 26/21/20 27/26/24 84/86/81
f 28/30/28 85/91/85 27/26/24
f 23/4/4 82/79/75 81/74/70
f 22/32/30 23/4/4 81/74/70
f 24/3/3 82/79/75 23/4/4
f 20/24/22 79/93/87 19/16/16
f 79/93/87 78/89/83 19/16/16
f 19/16/16 78/89/83 18/7/7
f 96/87/82 42/40/38 41/39/37 95/88/80
f 95/84/80 41/67/37 40/63/61 94/80/76
f 92/76/72 37/51/49 36/44/42 91/94/88
f 93/75/71 38/55/53 37/51/49 92/76/72
f 94/80/76 39/59/57 93/75/71
f 39/59/57 38/55/53 93/75/71
f 94/80/76 40/63/61 39/59/57
f 91/94/88 36/44/42 35/43/41
f 90/90/84 91/94/88 35/43/41
f 90/90/84 35/43/41 34/65/63
f 90/90/84 34/65/63 33/47/45 89/82/78
f 89/82/78 33/47/45 48/36/34 100/78/74
f 100/78/74 48/36/34 47/35/33
f 99/71/67 100/78/74 47/35/33
f 99/71/67 46/61/59 45/57/55 98/72/68
f 99/71/67 47/35/33 46/61/59
f 98/72/68 45/57/55 44/53/51 97/92/86
f 97/92/86 44/53/51 43/49/47
f 96/87/82 97/92/86 43/49/47
f 96/87/82 43/49/47 42/40/38
f 1/5/5 65/95/89 66/96/90 2/6/6
f 65/95/89 1/5/5 16/17/17 76/97/91
f 68/98/92 5/27/25 4/23/21 67/99/93
f 69/100/94 6/31/29 5/27/25 68/98/92
f 71/101/95 9/13/13 8/2/2 70/102/96
f 72/103/97 10/20/19 9/19/13 71/104/95
f 74/105/98 13/33/31 12/29/27 73/106/99
f 75/107/100 14/9/9 13/33/31 74/105/98
f 76/97/91 15/10/10 75/107/100
f 15/10/10 14/9/9 75/107/100
f 76/97/91 16/17/17 15/10/10
f 73/106/99 12/29/27 11/25/23
f 72/103/97 73/106/99 11/25/23
f 72/103/97 11/25/23 10/20/19
f 70/102/96 8/2/2 7/1/1
f 69/100/94 70/102/96 7/1/1
f 69/100/94 7/1/1 6/31/29
f 67/99/93 4/23/21 3/15/15
f 66/96/90 67/99/93 3/15/15
f 66/96/90 3/15/15 2/6/6
f 70/108/96 66/109/90 65/110/89 71/111/95
f 69/112/94 67/113/93 66/109/90 70/108/96
f 69/112/94 68/114/92 67/113/93
f 76/115/91 72/116/97 71/111/95 65/110/89
f 75/117/100 73/118/99 72/116/97 76/115/91
f 75/117/100 74/119/98 73/118/99
f 55/60/58 56/64/62 108/120/101 107/121/102
f 49/48/46 50/66/64 102/122/103 101/123/104
f 62/62/60 63/38/36 115/124/105 114/125/106
f 56/64/62 57/68/40 109/126/107 108/120/101
f 50/66/64 51/46/44 103/127/108 102/122/103
f 63/38/36 64/37/35 116/128/109 115/124/105
f 57/42/40 58/41/39 110/129/110 109/130/107
f 51/46/44 52/45/43 104/131/111 103/127/108
f 64/37/35 49/48/46 101/123/104 116/128/109
f 58/41/39 59/50/48 111/132/112 110/129/110
f 52/45/43 53/52/50 105/133/113 104/131/111
f 59/50/48 60/54/52 112/134/114 111/132/112
f 53/52/50 54/56/54 106/135/115 105/133/113
f 60/54/52 61/58/56 113/136/116 112/134/114
f 54/56/54 55/60/58 107/121/102 106/135/115
f 61/58/56 62/62/60 114/125/106 113/136/116
f 110/137/110 111/138/112 127/139/117 126/140/118
f 104/141/111 105/142/113 121/143/119 120/144/120
f 111/138/112 112/145/114 128/146/121 127/139/117
f 105/142/113 106/147/115 122/148/122 121/143/119
f 112/145/114 113/149/116 129/150/123 128/146/121
f 106/147/115 107/151/102 123/152/124 122/148/122
f 113/149/116 114/153/106 130/154/125 129/150/123
f 107/151/102 108/155/101 124/156/126 123/152/124
f 101/157/104 102/158/103 118/159/127 117/160/128
f 114/153/106 115/161/105 131/162/129 130/154/125
f 108/155/101 109/163/107 125/164/130 124/156/126
f 102/158/103 103/165/108 119/166/131 118/159/127
f 115/161/105 116/167/109 132/168/132 131/162/129
f 109/169/107 110/137/110 126/140/118 125/170/130
f 103/165/108 104/141/111 120/144/120 119/166/131
f 116/167/109 101/157/104 117/160/128 132/168/132
f 118/171/127 134/172/133 133/173/134 117/174/128
f 117/174/128 133/173/134 144/175/135 132/176/132
f 126/177/118 140/178/136 139/179/137 125/180/130
f 125/180/130 139/179/137 138/181/138 124/182/126
f 122/183/122 137/184/139 136/185/140 121/186/119
f 121/186/119 136/185/140 135/187/141 120/188/120
f 120/188/120 135/187/141 119/189/131
f 135/187/141 134/172/133 119/189/131
f 119/189/131 134/172/133 118/171/127
f 123/190/124 138/181/138 137/184/139
f 122/183/122 123/190/124 137/184/139
f 124/182/126 138/181/138 123/190/124
f 127/191/117 141/192/142 140/178/136
f 126/177/118 127/191/117 140/178/136
f 128/193/121 141/192/142 127/191/117
f 129/194/123 142/195/143 141/192/142 128/193/121
f 130/196/125 143/197/144 142/195/143 129/194/123
f 131/198/129 143/197/144 130/196/125
f 132/176/132 144/175/135 131/198/129
f 144/175/135 143/197/144 131/198/129
f 133/173/134 145/199/145 150/200/146 144/175/135
f 134/172/133 146/201/147 145/199/145 133/173/134
f 134/172/133 135/187/141 146/201/147
f 135/187/141 136/185/140 146/201/147
f 136/185/140 147/202/148 146/201/147
f 137/184/139 147/202/148 136/185/140
f 138/181/138 147/202/148 137/184/139
f 139/179/137 148/203/149 147/202/148 138/181/138
f 140/178/136 149/204/150 148/203/149 139/179/137
f 141/192/142 149/204/150 140/178/136
f 142/195/143 150/200/146 149/204/150
f 143/197/144 150/200/146 142/195/143
f 144/175/135 150/200/146 143/197/144
f 141/192/142 142/195/143 149/204/150
f 146/201/147 147/202/148 148/203/149 145/199/145
f 149/204/150 150/200/146 145/199/145 148/203/149
